HIERARCHY
ROOT hip
{
	OFFSET 0.000000 0.000000 0.000000 
	CHANNELS 6 Xposition Yposition Zposition Xrotation Zrotation Yrotation
	JOINT abdomen
	{
		OFFSET 0.000000 3.402643 0.000000 
		CHANNELS 3 Xrotation Zrotation Yrotation
		JOINT chest
		{
			OFFSET 0.000000 8.438565 -0.680529 
			CHANNELS 3 Xrotation Zrotation Yrotation
			JOINT neck
			{
				OFFSET 0.000000 10.207942 -0.272212 
				CHANNELS 3 Xrotation Zrotation Yrotation
				JOINT head
				{
					OFFSET 0.000000 3.130431 0.000000 
					CHANNELS 3 Xrotation Zrotation Yrotation
					End Site
					{
						OFFSET 0.000000 3.130435 0.000000 
					}
				}
			}
			JOINT lCollar
			{
				OFFSET 3.470700 6.669187 -0.816635 
				CHANNELS 3 Yrotation Zrotation Xrotation
				JOINT lShldr
				{
					OFFSET 3.198488 0.000000 0.000000 
					CHANNELS 3 Zrotation Yrotation Xrotation
					JOINT lForeArm
					{
						OFFSET 10.139888 0.000000 0.000000 
						CHANNELS 3 Yrotation Zrotation Xrotation
						JOINT lHand
						{
							OFFSET 8.370511 0.000000 0.000000 
							CHANNELS 3 Zrotation Yrotation Xrotation
							End Site
							{
								OFFSET 4.083176 0.000000 0.000000 
							}
						}
					}
				}
			}
			JOINT rCollar
			{
				OFFSET -3.470700 6.669187 -0.816635 
				CHANNELS 3 Yrotation Zrotation Xrotation
				JOINT rShldr
				{
					OFFSET -3.198488 0.000000 0.000000 
					CHANNELS 3 Zrotation Yrotation Xrotation
					JOINT rForeArm
					{
						OFFSET -10.139888 0.000000 0.000000 
						CHANNELS 3 Yrotation Zrotation Xrotation
						JOINT rHand
						{
							OFFSET -8.370511 0.000000 0.000000 
							CHANNELS 3 Zrotation Yrotation Xrotation
							End Site
							{
								OFFSET -4.083176 0.000000 0.000000 
							}
						}
					}
				}
			}
		}
	}
	JOINT lThigh
	{
		OFFSET 5.308129 -1.633274 1.361059 
		CHANNELS 3 Xrotation Zrotation Yrotation
		JOINT lShin
		{
			OFFSET -2.041588 -20.007561 0.000000 
			CHANNELS 3 Xrotation Zrotation Yrotation
			JOINT lFoot
			{
				OFFSET 0.000000 -19.190928 -1.224953 
				CHANNELS 3 Xrotation Yrotation Zrotation
				End Site
				{
					OFFSET 0.000000 -2.449906 4.627600 
				}
			}
		}
	}
	JOINT rThigh
	{
		OFFSET -5.308129 -1.633274 1.361059 
		CHANNELS 3 Xrotation Zrotation Yrotation
		JOINT rShin
		{
			OFFSET 2.041588 -20.007561 0.000000 
			CHANNELS 3 Xrotation Zrotation Yrotation
			JOINT rFoot
			{
				OFFSET 0.000000 -19.190928 -1.224953 
				CHANNELS 3 Xrotation Yrotation Zrotation
				End Site
				{
					OFFSET 0.000000 -2.449906 4.627600 
				}
			}
		}
	}
}
MOTION
Frames: 18
Frame Time: 0.016667
-22.589308 28.743532 38.827728 -31.231501 -57.979900 62.617901 -8.965410 -0.651240 0.170528 21.259800 0.468715 -0.267605 -4.582800 20.684700 -5.444350 4.513640 10.730900 -1.967230 2.000000 -2.000000 0.000000 -27.670099 -22.169701 139.082993 24.883101 -0.338873 0.057586 0.065923 -0.059703 -158.766998 -2.000000 2.000000 0.000000 68.212402 -22.506800 170.490997 -32.666401 0.329940 0.073796 -0.054958 0.013384 -141.707001 -70.224815 9.802203 -0.205848 64.510803 1.573151 3.832184 -30.950575 4.894278 -5.142530 -99.761139 18.266214 1.084573 73.937775 -0.034220 -4.468629 -1.719978 9.540445 -3.452339 
-22.584364 29.340385 39.585785 -32.450001 -57.702400 65.583397 -8.712640 -1.148440 0.040581 21.435600 0.624927 -0.400463 -5.200290 20.885000 -5.470950 4.354770 10.780300 -1.919750 2.000000 -2.000000 0.000000 -23.914700 -22.966700 135.634003 23.232700 -0.340478 0.053990 0.063661 -0.063483 -156.481995 -2.000000 2.000000 0.000000 -108.377998 -156.434006 -7.552720 -32.949600 0.329574 0.074364 -0.055288 0.016869 -142.957001 -69.370506 8.526954 -2.134005 63.294674 1.643442 3.789924 -30.783379 6.737449 -4.126004 -102.228218 18.273005 -7.271181 70.482002 0.053069 -4.542607 0.390818 12.309975 -3.405313 
-22.565041 29.935555 40.331825 -34.320000 -57.357700 70.162498 -8.536040 -1.495220 -0.586929 21.416100 0.751869 -0.730782 -6.197470 20.761000 -5.404230 3.947000 10.683600 -1.867560 2.000000 -2.000000 0.000000 -20.293699 -24.087400 131.104004 20.849800 -0.342612 0.048721 0.050513 -0.043030 -152.477997 -2.000000 2.000000 0.000000 -105.806999 -155.089005 -4.450590 -33.574600 0.328756 0.075611 -0.055786 0.021050 -144.460999 -68.620804 7.023170 -3.577000 61.744221 1.737207 3.720366 -29.848722 7.617429 -3.682719 -103.853401 17.833408 -15.269200 67.562965 0.117790 -4.609140 3.163665 14.869790 -3.440612 
-22.526735 30.554424 41.057644 -36.709099 -56.991600 75.913002 -8.226980 -1.565900 -1.431770 21.494301 0.927610 -1.127240 -7.229620 20.651600 -5.597540 3.638840 10.576600 -1.905230 2.000000 -2.000000 0.000000 -16.694599 -26.384100 123.111000 17.744301 -0.345060 0.041728 0.045974 -0.020699 -144.334000 -2.000000 2.000000 0.000000 -103.872002 -154.113998 -1.240090 -33.691799 0.328601 0.075844 -0.055815 0.021267 -144.539001 -68.020683 5.786926 -4.066128 59.881424 1.831465 3.666007 -28.526123 6.814097 -4.169638 -104.593063 17.237762 -22.787518 64.583015 0.138703 -4.647338 6.767444 16.679272 -3.634225 
-22.460119 31.169813 41.780315 -39.200401 -56.528801 82.284500 -7.891850 -1.486600 -2.391300 21.670099 1.142360 -1.549870 -8.120930 20.888399 -6.117510 3.460030 10.596200 -2.074410 2.000000 -2.000000 0.000000 -13.165800 -29.628201 112.587997 14.892700 -0.346971 0.035199 0.045219 0.003945 -132.018997 -2.000000 2.000000 0.000000 -102.328003 -153.384995 1.521810 -32.900700 0.329637 0.074266 -0.055226 0.016270 -142.742004 -67.658249 4.869797 -3.091167 58.008598 1.917182 3.602658 -26.768480 4.605323 -5.280910 -104.616150 16.699133 -29.325253 61.218479 0.094591 -4.632076 11.469950 17.280478 -4.034997 
-22.354858 31.733528 42.511635 -41.374100 -55.821400 89.024002 -7.557350 -1.396790 -3.510920 21.875299 1.259430 -2.041120 -8.763580 21.324400 -6.913990 3.400420 10.684100 -2.388860 2.000000 -2.000000 0.000000 -10.294500 -32.952301 108.025002 13.925900 -0.347545 0.032965 0.049777 0.030544 -122.371002 -2.000000 2.000000 0.000000 -100.911003 -152.608994 3.473050 -31.455400 0.331474 0.071347 -0.054670 0.009320 -140.251999 -67.172287 3.944601 -0.451863 55.891247 2.002215 3.540445 -23.969912 1.128440 -6.769959 -103.831879 16.300314 -34.023663 57.509392 -0.022840 -4.586104 13.087030 17.448874 -3.546180 
-22.229488 32.242641 43.279583 -42.930698 -54.948700 95.747002 -7.320150 -1.288220 -4.714270 22.119600 1.415490 -2.558810 -9.194930 21.654900 -7.897150 3.400420 10.732900 -2.828840 2.000000 -2.000000 0.000000 -8.022370 -36.640598 111.871002 13.750200 -0.347646 0.032557 0.054000 0.044261 -117.244003 -2.000000 2.000000 0.000000 -99.522499 -151.425003 4.290520 -29.814800 0.333469 0.067979 -0.054453 0.004183 -138.416000 -66.516541 2.980194 3.775423 53.883118 2.041015 3.476800 -20.157864 -3.852147 -8.285748 -102.899559 16.096895 -35.281563 54.231613 -0.083768 -4.533628 6.877205 15.533269 -0.724325 
-22.110071 32.692783 44.127735 -43.622002 -53.963799 101.646004 -7.238170 -1.123040 -5.712500 22.393499 1.815470 -2.988380 -9.519350 21.878599 -9.068570 3.390480 10.811100 -3.397920 2.000000 -2.000000 0.000000 -6.263790 -41.113899 120.487000 13.769700 -0.347634 0.032603 0.055698 0.048793 -115.515999 -2.000000 2.000000 0.000000 -98.396599 -149.559998 4.212780 -28.164400 0.335377 0.064534 -0.054407 0.001668 -137.516998 -65.619141 2.305684 9.375309 52.591042 2.052998 3.447978 -15.335127 -10.011262 -9.206424 -102.193192 16.400759 -31.719809 51.822723 -0.161142 -4.459995 1.144328 7.706460 1.007210 
-22.016495 33.076305 45.016666 -43.640202 -52.578602 106.195000 -7.331990 -0.898873 -6.338060 22.394199 2.410870 -3.252410 -9.533740 22.191900 -10.268300 3.480020 11.045400 -3.969590 2.000000 -2.000000 0.000000 -5.721880 -45.576599 134.192001 15.537300 -0.346568 0.036683 0.050240 0.042054 -121.726997 -2.000000 2.000000 0.000000 -97.903702 -146.983994 3.425180 -26.494400 0.337206 0.060994 -0.054401 -0.000985 -136.570007 -64.385674 2.316237 15.359750 52.654659 1.963695 3.471715 -9.752571 -15.516822 -8.720273 -101.669373 17.387602 -23.822540 50.531387 -0.179073 -4.439679 0.576410 -0.222515 0.511119 
-21.974144 33.415794 45.821007 -43.736900 -50.638302 109.555000 -7.507950 -0.658332 -6.595150 21.905899 2.753140 -3.352760 -9.131670 22.465900 -11.133600 3.719150 11.367500 -4.365890 2.000000 -2.000000 0.000000 -6.117390 -49.896599 148.084000 19.326401 -0.343860 0.045307 0.045102 0.002500 -132.537003 -2.000000 2.000000 0.000000 -98.493401 -144.035995 3.031550 -24.931900 0.338824 0.057635 -0.054445 0.005882 -135.535004 -63.113544 3.280900 20.128992 54.789047 1.771260 3.600320 -5.660556 -18.312286 -7.471914 -100.948792 18.863646 -14.776908 49.943283 -0.206245 -4.410287 0.402384 -4.477970 -0.157875 
-22.001104 33.777523 46.470432 -44.390999 -48.464199 112.351997 -7.688160 -0.370901 -6.754860 21.153099 2.792820 -3.398230 -8.573170 22.283501 -11.404600 3.978410 11.503900 -4.489820 2.000000 -2.000000 0.000000 -6.722660 -55.054501 156.591995 22.021700 -0.341590 0.051323 0.044724 -0.005414 -138.854996 -2.000000 2.000000 0.000000 -100.655998 -141.347000 4.343350 -23.730700 0.340005 0.055023 -0.054482 0.004570 -135.065994 -62.533272 4.953680 22.752104 58.853745 1.488574 3.791551 -4.308423 -18.468529 -6.578843 -99.925247 20.115196 -7.302962 49.266586 -0.244724 -4.369432 -0.195503 -6.134110 -0.710419 
-22.090525 34.212269 47.019543 -45.546001 -46.674099 114.996002 -7.813830 -0.015033 -7.058620 20.693501 2.958980 -3.517830 -8.115470 21.661100 -11.122100 4.107750 11.415700 -4.357190 2.000000 -2.000000 0.000000 -6.761690 -59.472698 163.500000 24.277599 -0.339474 0.056272 0.045040 -0.011422 -141.003998 -2.000000 2.000000 0.000000 -104.431999 -139.738998 6.882060 -22.802999 0.340879 0.052990 -0.054510 0.003778 -134.783005 -63.205067 6.874619 23.611650 63.683659 1.097368 4.002594 -4.401555 -17.424444 -6.100194 -98.411697 20.636438 -2.077275 47.219116 -0.330329 -4.290434 1.150106 -3.338722 -0.676972 
-22.233532 34.781712 47.504059 -46.893002 -45.527500 117.344002 -7.893680 0.222164 -7.490090 20.654499 3.427730 -3.714280 -7.786510 21.035400 -10.485600 4.127240 11.239900 -4.080170 2.000000 -2.000000 0.000000 -6.126050 -63.133499 168.307999 25.781500 -0.337956 0.059524 0.044782 -0.006917 -139.391998 -2.000000 2.000000 0.000000 -108.719002 -139.707993 7.887850 -21.728800 0.341850 0.050618 -0.054719 -0.000374 -133.298996 -65.068375 8.865820 23.640551 68.512726 0.677928 4.196581 -4.671000 -16.516134 -5.690245 -96.298996 20.299250 0.459247 43.211555 -0.468521 -4.101790 6.781711 2.584458 -0.723438 
-22.439445 35.502701 47.894657 -48.515202 -45.006199 119.084000 -7.957660 0.271007 -7.799030 20.899200 3.925710 -3.882180 -7.404040 20.675301 -9.679470 4.136670 11.025000 -3.727080 2.000000 -2.000000 0.000000 -5.035740 -66.505997 171.026993 26.592100 -0.337102 0.061259 0.044638 -0.001341 -137.399994 -2.000000 2.000000 0.000000 -112.422997 -141.216003 5.944600 -20.527599 0.342883 0.047944 -0.055287 -0.007104 -130.886993 -67.664497 10.979301 23.160044 72.389954 0.296911 4.330080 -4.729049 -16.025881 -5.380936 -93.880905 19.439917 -0.629783 37.286102 -0.592052 -3.847292 15.077675 8.348127 -2.113080 
-22.701422 36.321194 48.181347 -50.578701 -44.886002 120.175003 -7.968670 0.113010 -7.951090 21.291000 4.169580 -3.969470 -7.032500 20.517099 -8.757590 4.165860 10.771100 -3.302140 2.000000 -2.000000 0.000000 -3.004030 -69.571800 171.313995 26.826500 -0.336851 0.061758 0.044636 0.000957 -136.580002 -2.000000 2.000000 0.000000 -115.397003 -143.959000 2.435650 -19.756100 0.343517 0.046216 -0.055745 -0.010987 -129.490005 -71.012596 13.386443 21.894617 75.346451 -0.015953 4.453426 -4.831280 -15.749110 -5.169637 -91.369507 18.673973 -5.258158 29.913261 -0.628684 -3.520960 22.651403 12.356683 -4.421867 
-22.976986 37.188896 48.421192 -53.090000 -44.879601 120.914001 -7.865910 -0.155818 -8.014630 21.790400 4.159200 -4.021360 -6.888870 20.524599 -7.772730 4.175190 10.536700 -2.802840 2.000000 -2.000000 0.000000 -0.145292 -72.214798 168.681000 26.455400 -0.337248 0.060967 0.044672 0.003554 -135.651993 -2.000000 2.000000 0.000000 -117.806999 -147.567993 0.028158 -19.834200 0.343454 0.046391 -0.055267 -0.006913 -130.955002 -74.879082 15.975211 19.503866 77.390808 -0.263933 4.541085 -5.767266 -15.094035 -5.207460 -88.718239 18.386116 -12.034829 21.511381 -0.426869 -3.222443 29.114986 15.367562 -7.083682 
-23.219973 38.004856 48.677429 -55.831902 -44.832401 121.857002 -7.688160 -0.442850 -8.208020 22.358200 4.109300 -4.128310 -6.897440 20.607401 -6.802120 4.164760 10.341400 -2.287500 2.000000 -2.000000 0.000000 2.790860 -74.511398 163.770996 25.625299 -0.338117 0.059188 0.044780 -0.002877 -134.460999 -2.000000 2.000000 0.000000 -119.824997 -151.522995 0.169645 -20.732700 0.342711 0.048402 -0.054463 0.005199 -135.291000 -79.093826 18.271078 16.033186 78.522057 -0.420068 4.592588 -7.828639 -13.454658 -5.371079 -86.105026 18.185452 -21.575375 12.899692 0.046182 -3.034707 38.749199 18.504797 -11.790945 
-23.487452 38.808182 48.914581 -58.214600 -44.639198 123.179001 -7.458430 -0.746822 -8.638830 23.004299 4.097830 -4.346220 -6.869110 20.837400 -5.998740 4.204240 10.253400 -1.841290 2.000000 -2.000000 0.000000 4.626600 -76.946404 157.964005 24.375299 -0.339378 0.056485 0.044969 0.000618 -133.210999 -2.000000 2.000000 0.000000 -121.305000 -155.406006 1.624430 -21.972900 0.341633 0.051158 -0.054670 0.009320 -140.251999 -83.065445 19.571297 12.033383 78.505371 -0.485168 4.620457 -10.407201 -10.720231 -5.330591 -83.238373 18.661871 -25.517517 5.947132 0.651807 -2.983225 45.778114 20.794333 -16.085730 
